<?xml version="1.0" encoding="UTF-8"?>
<svg id="_圖層_2" data-name="圖層 2" xmlns="http://www.w3.org/2000/svg" viewBox="0 0 128 128">
  <defs>
    <style>
      .cls-1 {
        stroke-width: 0px;
      }
    </style>
  </defs>
  <g id="a01f2968-e42a-40b2-b09f-aad3fb39e08f">
    <path class="cls-1" d="m128,6.48v-.05c0-1.63-.62-3.26-1.85-4.5,0-.01-.02-.02-.04-.04h0c-1.24-1.24-2.86-1.87-4.49-1.88h-.05c-.13,0-.26,0-.39.02-.11,0-.22-.02-.34-.02h-42.18c-3.13,0-4.7,3.79-2.49,6.01l18.36,18.36L1.89,117.03c-1.25,1.24-1.88,2.86-1.89,4.49v.05c0,1.63.62,3.26,1.85,4.5l.04.04c1.19,1.2,2.74,1.82,4.3,1.88h.47c1.55-.06,3.09-.66,4.28-1.84.01-.01.02-.02.04-.04L103.63,33.46l18.37,18.37c2.22,2.22,6.01.65,6.01-2.49V7.16c0-.12-.01-.23-.02-.34,0-.11.02-.22.02-.34Z"/>
  </g>
</svg>