<?xml version="1.0" encoding="UTF-8"?>
<svg id="_圖層_2" data-name="圖層 2" xmlns="http://www.w3.org/2000/svg" xmlns:xlink="http://www.w3.org/1999/xlink" viewBox="0 0 128 128">
  <defs>
    <style>
      .cls-1, .cls-2 {
        stroke-width: 0px;
      }

      .cls-2 {
        fill: none;
      }

      .cls-3 {
        clip-path: url(#clippath);
      }
    </style>
    <clipPath id="clippath">
      <rect class="cls-2" width="128" height="128"/>
    </clipPath>
  </defs>
  <g id="_圖層_1-2" data-name="圖層 1">
    <g class="cls-3">
      <g>
        <path class="cls-1" d="m126.55,8.01c1.27-1.28,1.7-2.82,1.17-4.57-.51-1.7-1.68-2.75-3.38-3.13-1.97-.45-3.45.45-4.81,1.81C80.34,41.28,41.12,80.41,1.91,119.55c-.3.3-.63.59-.88.93-1.14,1.49-1.35,3.14-.54,4.81.81,1.68,2.23,2.53,4.11,2.56,1.62.04,2.75-.84,3.82-1.91C44.03,90.39,79.65,54.84,115.26,19.3c3.77-3.76,7.54-7.51,11.29-11.29Z"/>
        <path class="cls-1" d="m127.05,33.25c2.06-2.72.6-6.53-2.75-7.2-1.88-.38-3.29.41-4.58,1.69-30.69,30.65-61.4,61.29-92.09,91.93-.3.3-.61.61-.86.95-1.05,1.48-1.23,3.07-.42,4.7.83,1.68,2.25,2.51,4.12,2.54,1.68.04,2.82-.93,3.92-2.03,30.49-30.45,60.99-60.89,91.49-91.33.4-.4.82-.8,1.16-1.25Z"/>
        <path class="cls-1" d="m1.5,94.16c-1.44,1.45-1.86,3.2-1.04,5.09.77,1.76,2.19,2.68,4.14,2.73,1.68.07,2.84-.86,3.95-1.96,30.52-30.48,61.05-60.95,91.58-91.42.4-.4.82-.8,1.16-1.26,1.86-2.57.54-6.29-2.54-7.06-2-.5-3.55.32-4.97,1.73C66.15,29.62,38.51,57.2,10.87,84.79c-3.13,3.12-6.26,6.23-9.37,9.37Z"/>
        <path class="cls-1" d="m1.12,68.79c-2.07,2.55-.92,6.27,2.23,7.22,2.03.61,3.58-.18,4.99-1.58,13.51-13.5,27.04-27,40.56-40.49,8.51-8.49,17.02-16.99,25.54-25.47,1.04-1.04,1.85-2.16,1.85-3.7.02-1.92-1.11-3.64-2.92-4.3-2.14-.78-3.83-.03-5.38,1.52C46,23.95,24,45.9,2,67.86c-.3.3-.61.6-.88.93Z"/>
        <path class="cls-1" d="m126.43,59.74c1.41-1.41,1.84-3.09,1.14-4.96-.64-1.69-1.94-2.66-3.75-2.88-1.7-.2-3,.54-4.17,1.71-22.05,22.03-44.12,44.05-66.18,66.07-.27.27-.56.53-.78.83-1.1,1.51-1.33,3.13-.48,4.81.84,1.67,2.25,2.5,4.13,2.53,1.62.03,2.74-.88,3.81-1.95,18.39-18.37,36.79-36.73,55.19-55.09,3.7-3.69,7.4-7.38,11.1-11.08Z"/>
        <path class="cls-1" d="m120.03,79.07c-13.66,13.61-27.31,27.24-40.96,40.87-.91.91-1.45,1.98-1.42,2.94,0,2.32.93,3.74,2.67,4.53,1.82.82,3.57.51,5.01-.86,2.13-2.03,4.18-4.14,6.27-6.22,11.57-11.54,23.14-23.08,34.69-34.63,2.08-2.08,2.2-4.82.34-6.71-1.82-1.86-4.65-1.86-6.62.09Z"/>
        <path class="cls-1" d="m.93,43.25c-1.02,1.49-1.18,3.07-.32,4.69.85,1.61,2.21,2.41,4.82,2.48.83.04,1.97-.84,3.04-1.92,9-9,18.01-17.99,27.02-26.98,4.47-4.46,8.95-8.92,13.41-13.39,1.36-1.36,1.79-2.98,1.16-4.82-.59-1.74-1.87-2.72-3.64-3-1.75-.28-3.1.49-4.31,1.7C28.7,15.41,15.28,28.79,1.88,42.18c-.33.33-.67.68-.94,1.06Z"/>
        <path class="cls-1" d="m120.13,104.68c-.69.65-1.35,1.34-2.02,2.01-4.47,4.46-8.94,8.9-13.39,13.37-1.43,1.44-1.8,3.39-1,5.1.82,1.74,2.22,2.65,4.16,2.7,1.31.02,2.4-.5,3.31-1.4,1.55-1.54,3.09-3.08,4.64-4.62,3.56-3.55,7.14-7.08,10.66-10.67,1.88-1.92,1.85-4.71.04-6.5-1.78-1.76-4.51-1.76-6.41,0Z"/>
        <path class="cls-1" d="m4.23,24.69c1.7.03,2.82-.5,3.77-1.45,5.01-5,10.03-9.99,15.03-15.01,2.01-2.01,2.08-4.74.25-6.61-1.86-1.91-4.66-1.83-6.72.2-2.17,2.13-4.31,4.29-6.46,6.44-2.89,2.89-5.8,5.76-8.67,8.67-1.4,1.42-1.76,3.15-.98,4.98.75,1.77,2.18,2.68,3.78,2.77Z"/>
      </g>
    </g>
  </g>
</svg>