<?xml version="1.0" encoding="utf-8"?>
<!-- Generator: Adobe Illustrator 28.0.0, SVG Export Plug-In . SVG Version: 6.00 Build 0)  -->
<svg version="1.1" id="圖層_1" xmlns="http://www.w3.org/2000/svg" xmlns:xlink="http://www.w3.org/1999/xlink" x="0px" y="0px"
	 viewBox="0 0 128 128" style="enable-background:new 0 0 128 128;" xml:space="preserve">
<style type="text/css">
	.st0{clip-path:url(#SVGID_00000128479643981106982510000006641797135376310926_);}
</style>
<g>
	<defs>
		<rect id="SVGID_1_" width="128" height="128"/>
	</defs>
	<clipPath id="SVGID_00000118392411963563226190000001034136044840397988_">
		<use xlink:href="#SVGID_1_"  style="overflow:visible;"/>
	</clipPath>
	<path style="clip-path:url(#SVGID_00000118392411963563226190000001034136044840397988_);" d="M121.9,30.3H82.3V12.1
		c0-3.4-2.7-6.1-6.1-6.1H51.8c-3.4,0-6.1,2.7-6.1,6.1v18.3H6.1c-3.4,0-6.1,2.7-6.1,6.1v24.4c0,3.4,2.7,6.1,6.1,6.1h3v49
		c0,3.4,2.7,6.1,6.1,6.1h12.2h73.1h12.2c3.4,0,6.1-2.7,6.1-6.1v-49h3c3.4,0,6.1-2.7,6.1-6.1V36.4C128,33.1,125.3,30.3,121.9,30.3z
		 M106.7,109.8h-6.1h-6.1V97.4c0-3.4-2.7-6.1-6.1-6.1s-6.1,2.7-6.1,6.1v12.5H70.1V97.3c0-3.4-2.7-6.1-6.1-6.1
		c-3.4,0-6.1,2.7-6.1,6.1v12.5H45.7V97.4c0-3.4-2.7-6.1-6.1-6.1c-3.4,0-6.1,2.7-6.1,6.1v12.5h-6.1h-6.1V67.2h85.3V109.8z M12.2,42.5
		h39.6c3.4,0,6.1-2.7,6.1-6.1V18.2h12.2v18.3c0,3.4,2.7,6.1,6.1,6.1h39.6v12.2H12.2V42.5z"/>
</g>
</svg>
