<?xml version="1.0" encoding="UTF-8"?>
<svg id="_圖層_2" data-name="圖層 2" xmlns="http://www.w3.org/2000/svg" xmlns:xlink="http://www.w3.org/1999/xlink" viewBox="0 0 128 128">
  <defs>
    <style>
      .cls-1, .cls-2 {
        stroke-width: 0px;
      }

      .cls-2 {
        fill: none;
      }

      .cls-3 {
        clip-path: url(#clippath);
      }
    </style>
    <clipPath id="clippath">
      <rect class="cls-2" width="128" height="128"/>
    </clipPath>
  </defs>
  <g id="_圖層_1-2" data-name="圖層 1">
    <g class="cls-3">
      <path class="cls-1" d="m126.2,32.25c-2.37-2.39-6.23-2.41-8.62-.04-.01.01-.02.02-.04.04l-7.86,7.92V6.11c0-3.37-2.73-6.09-6.09-6.09s-6.09,2.73-6.09,6.09v34.06l-7.86-7.92c-2.39-2.39-6.26-2.39-8.65,0-2.39,2.39-2.39,6.26,0,8.65l18.28,18.28c.58.55,1.26.99,2.01,1.28,1.47.65,3.16.65,4.63,0,.75-.29,1.43-.72,2.01-1.28l18.28-18.28c2.39-2.37,2.41-6.23.04-8.62-.01-.01-.02-.02-.04-.04Zm-22.61,40.89c-3.37,0-6.09,2.73-6.09,6.09v2.32l-9.02-9.02c-6.63-6.58-17.32-6.58-23.95,0l-4.27,4.27-15.11-15.11c-6.71-6.38-17.24-6.38-23.95,0l-9.02,9.02v-34.12c0-3.37,2.73-6.09,6.09-6.09h48.75c3.37,0,6.09-2.73,6.09-6.09s-2.73-6.09-6.09-6.09H18.28C8.18,18.3,0,26.48,0,36.58v73.12c0,10.1,8.18,18.28,18.28,18.28h73.12c10.1,0,18.28-8.18,18.28-18.28v-30.47c0-3.37-2.73-6.09-6.09-6.09ZM18.28,115.8c-3.37,0-6.09-2.73-6.09-6.09v-21.75l17.67-17.67c1.86-1.77,4.78-1.77,6.64,0l19.32,19.32h0l26.2,26.2H18.28Zm79.22-6.09c0,1.17-.39,2.3-1.1,3.23l-27.48-27.6,4.27-4.27c1.81-1.85,4.78-1.88,6.64-.07.02.02.05.04.07.07l17.61,17.73v10.91Z"/>
    </g>
  </g>
</svg>