<?xml version="1.0" encoding="UTF-8"?>
<svg id="_圖層_2" data-name="圖層 2" xmlns="http://www.w3.org/2000/svg" xmlns:xlink="http://www.w3.org/1999/xlink" viewBox="0 0 128 128">
  <defs>
    <style>
      .cls-1, .cls-2 {
        stroke-width: 0px;
      }

      .cls-2 {
        fill: none;
      }

      .cls-3 {
        clip-path: url(#clippath);
      }
    </style>
    <clipPath id="clippath">
      <rect class="cls-2" width="128" height="128"/>
    </clipPath>
  </defs>
  <g id="_圖層_1-2" data-name="圖層 1">
    <g class="cls-3">
      <path class="cls-1" d="m125.63,42.32l-23.99-23.99c-2.3-2.27-5.74-2.93-8.72-1.68-2.99,1.23-4.94,4.13-4.96,7.36v15.99h-23.99C28.64,40,0,68.64,0,103.98c0,4.42,3.58,8,8,8s8-3.58,8-8c0-26.5,21.48-47.98,47.98-47.98h23.99v15.99c.02,3.23,1.97,6.13,4.96,7.36.95.45,1.99.67,3.04.64,2.13.01,4.17-.82,5.68-2.32l23.99-23.99c3.14-3.11,3.16-8.17.05-11.31-.02-.02-.03-.03-.05-.05Z"/>
    </g>
  </g>
</svg>