<?xml version="1.0" encoding="UTF-8"?>
<svg id="_圖層_2" data-name="圖層 2" xmlns="http://www.w3.org/2000/svg" xmlns:xlink="http://www.w3.org/1999/xlink" viewBox="0 0 128 128">
  <defs>
    <style>
      .cls-1, .cls-2 {
        stroke-width: 0px;
      }

      .cls-2 {
        fill: none;
      }

      .cls-3 {
        clip-path: url(#clippath);
      }
    </style>
    <clipPath id="clippath">
      <rect class="cls-2" width="128" height="128"/>
    </clipPath>
  </defs>
  <g id="_圖層_1-2" data-name="圖層 1">
    <g class="cls-3">
      <path class="cls-1" d="m114.29,18.29h-27.43v-6.86c0-6.31-5.12-11.43-11.43-11.43h-22.86c-6.31,0-11.43,5.12-11.43,11.43v6.86H13.71c-2.52,0-4.57,2.05-4.57,4.57s2.05,4.57,4.57,4.57h4.86l5.43,87.12c.41,7.67,6.29,13.45,13.71,13.45h52.57c7.47,0,13.23-5.65,13.71-13.43l5.43-87.14h4.86c2.52,0,4.57-2.05,4.57-4.57s-2.05-4.57-4.57-4.57ZM45.88,109.71h-.16c-2.46,0-4.48-1.95-4.57-4.41l-2.29-64c-.09-2.52,1.88-4.64,4.41-4.73,2.52-.09,4.64,1.88,4.73,4.41l2.29,64c.09,2.52-1.88,4.64-4.4,4.73,0,0,0,0,0,0Zm22.69-4.57c0,2.52-2.05,4.57-4.57,4.57s-4.57-2.05-4.57-4.57V41.14c0-2.52,2.05-4.57,4.57-4.57s4.57,2.05,4.57,4.57v64Zm9.14-86.86h-27.43v-6.86c-.01-1.25.99-2.27,2.23-2.29.02,0,.03,0,.05,0h22.86c1.25-.01,2.27.99,2.29,2.23,0,.02,0,.03,0,.05v6.86Zm9.14,87.02c-.09,2.46-2.11,4.41-4.57,4.41h-.17c-2.52-.09-4.5-2.21-4.41-4.73,0,0,0,0,0,0l2.29-64c.09-2.52,2.21-4.5,4.73-4.41,2.52.09,4.5,2.21,4.41,4.73l-2.29,64Z"/>
    </g>
  </g>
</svg>