<?xml version="1.0" encoding="UTF-8"?>
<svg id="_圖層_2" data-name="圖層 2" xmlns="http://www.w3.org/2000/svg" xmlns:xlink="http://www.w3.org/1999/xlink" viewBox="0 0 128 128">
  <defs>
    <style>
      .cls-1, .cls-2 {
        stroke-width: 0px;
      }

      .cls-2 {
        fill: none;
      }

      .cls-3 {
        clip-path: url(#clippath);
      }
    </style>
    <clipPath id="clippath">
      <rect class="cls-2" width="128" height="128"/>
    </clipPath>
  </defs>
  <g id="_圖層_1-2" data-name="圖層 1">
    <g class="cls-3">
      <g>
        <path class="cls-1" d="m127.95,51.94c-.11-2.32-1.86-4.11-4.16-4.29-2.12-.18-4.18,1.42-4.61,3.63-.12.63-.13,1.29-.14,1.94-.01,4.03,0,8.05,0,12.34-.79-.67-1.38-1.16-1.97-1.66-6.87-5.84-16.48-5.83-23.34.05-7.8,6.68-15.6,13.38-23.39,20.08-4.38,3.76-8.61,3.76-12.96-.03-6.91-6.03-15.34-6.54-22.92-1.43-7.58,5.11-15.2,10.18-22.77,15.32-.96.65-1.13.42-1.34-.57-.79-3.65-1.31-7.33-1.33-11.05-.07-14.23-.07-28.46-.05-42.7,0-4.75.54-9.46,1.7-14.08,2.37-9.43,8.08-15.68,17.49-18.41,5.26-1.52,10.66-2.06,16.12-2.07,8.28-.02,16.56-.02,24.83-.02.89,0,1.76-.05,2.59-.42,1.97-.9,3.02-2.95,2.58-5.04-.42-2-2.23-3.46-4.48-3.46-9.3,0-18.6-.04-27.9.09-5.54.07-11.01.88-16.34,2.47C15.09,5.73,7.59,12.13,3.64,22.48,1.3,28.63.2,35.04.13,41.57c-.15,14.51-.11,29.02-.06,43.53.02,5.59.75,11.12,2.26,16.52,2.85,10.24,8.75,17.91,18.68,22.17,6.54,2.8,13.45,4,20.49,4.1,13.72.18,27.44.09,41.16.11,6.44,0,12.81-.58,19.03-2.32,10.94-3.07,18.77-9.64,22.79-20.44,2.24-6.03,3.27-12.31,3.38-18.69.17-10.65.09-21.3.12-31.94,0-.88.02-1.77-.02-2.65Zm-10.52,46.1c-2.69,11.38-10.02,17.69-21.28,19.85-4.82.92-9.68,1.2-14.56,1.19-5.91-.01-11.81,0-17.72,0,0-.02,0-.05,0-.07-7.39,0-14.79.13-22.18-.04-6.53-.15-12.95-1.11-18.88-4.15-3.24-1.66-5.9-3.99-8.04-6.95-.53-.73-.39-1.01.3-1.48,8.37-5.6,16.72-11.25,25.09-16.85,3.56-2.38,7.79-2.06,11.01.92,4.2,3.89,9.05,5.7,14.76,5.11,3.67-.38,6.86-1.86,9.65-4.26,7.97-6.85,15.94-13.68,23.91-20.53,3.58-3.08,8.22-3.12,11.79-.06,2.33,1.99,4.65,4,6.98,6,.39.33.77.61.77,1.22.02,6.74-.05,13.47-1.62,20.1Z"/>
        <path class="cls-1" d="m29.73,40.2c0,9.02,7.38,16.37,16.42,16.35,9.05-.02,16.41-7.4,16.36-16.42-.05-9.04-7.44-16.34-16.49-16.31-8.94.04-16.29,7.42-16.29,16.37Zm23.85-.02c.02,4.08-3.32,7.42-7.44,7.43-4.12,0-7.46-3.29-7.48-7.4-.01-4.07,3.36-7.45,7.44-7.46,4.09,0,7.46,3.34,7.48,7.42Z"/>
        <path class="cls-1" d="m91.25,19.25c1.27-1.25,2.51-2.54,4-4.04v3.24c0,7.21-.01,14.42,0,21.62,0,2.57,2,4.6,4.44,4.61,2.44.01,4.42-2,4.48-4.57.02-.65,0-1.3,0-1.95,0-7.52,0-15.04,0-22.57.1-.06.2-.11.3-.17.6.64,1.18,1.3,1.79,1.93.65.67,1.3,1.33,1.97,1.97,1.97,1.9,4.69,2.01,6.49.25,1.84-1.79,1.78-4.58-.2-6.58-3.82-3.87-7.66-7.73-11.51-11.57-1.89-1.88-4.76-1.89-6.61-.03-3.84,3.85-7.67,7.71-11.5,11.58-1.99,2.02-2.08,4.76-.24,6.58,1.83,1.81,4.54,1.7,6.58-.3Z"/>
      </g>
    </g>
  </g>
</svg>