<?xml version="1.0" encoding="UTF-8"?>
<svg id="_圖層_2" data-name="圖層 2" xmlns="http://www.w3.org/2000/svg" xmlns:xlink="http://www.w3.org/1999/xlink" viewBox="0 0 128 128">
  <defs>
    <style>
      .cls-1, .cls-2 {
        stroke-width: 0px;
      }

      .cls-2 {
        fill: none;
      }

      .cls-3 {
        clip-path: url(#clippath);
      }
    </style>
    <clipPath id="clippath">
      <rect class="cls-2" width="128" height="128"/>
    </clipPath>
  </defs>
  <g id="Layer_1" data-name="Layer 1">
    <g class="cls-3">
      <path class="cls-1" d="m123.54,6.89c-5.24-5.23-13.39-5.92-19.45-1.67-21.97,14.77-64.44,57.14-66.24,58.94-.06.06-.12.12-.17.18-.06.05-.11.11-.17.17-2.13,2.13-3.71,4.68-4.68,7.45-4.52.75-8.75,2.93-12.09,6.36-8.68,8.91-9.12,18.52-8.88,22.35-.78,2.55-4.98,4.3-6.09,4.64-2.93.82-5.13,3.26-5.65,6.26s.75,6.03,3.24,7.79c6.32,4.44,12.61,6.19,18.53,6.19,13.43,0,24.96-8.98,30.58-15.8,3.22-3.42,5.24-7.67,5.9-12.2,2.8-.97,5.37-2.56,7.53-4.72.06-.06.11-.11.17-.17.05-.05.1-.1.15-.15,1.8-1.8,44.21-44.22,59-66.16,4.27-6.06,3.58-14.22-1.67-19.46ZM51.79,85.98c-1.95,0-3.86-.8-5.23-2.17-1.38-1.37-2.08-3.2-2.08-5.14s.7-3.76,2.08-5.13l3.8-3.75c.2-.2.48-.46.7-.68l10.23,10.23c-.21.22-.48.49-.67.68l-3.79,3.83c-1.33,1.34-3.09,2.13-5.04,2.13Zm-30.32,26.95c-1.06,0-2.1-.1-3.13-.28,2.91-2.52,5.7-6.72,6.24-11.65-.02-.23-.95-7.5,5.23-13.84,1.79-1.84,4.17-2.86,6.69-2.86s4.86,1.03,6.66,2.84c6.42,6.43-.25,14.32-.26,14.32-.09.11-9.85,11.47-21.43,11.47ZM114.53,15.94c.83.83.93,2.13.24,3.09-10.25,15.24-37.62,43.98-50.16,56.9l-10.14-10.14c12.93-12.52,41.66-39.83,56.82-50,.54-.39,1.03-.54,1.55-.54.37,0,1.08.09,1.69.7Z"/>
    </g>
  </g>
</svg>