<?xml version="1.0" encoding="UTF-8"?>
<svg id="_圖層_2" data-name="圖層 2" xmlns="http://www.w3.org/2000/svg" xmlns:xlink="http://www.w3.org/1999/xlink" viewBox="0 0 128 128">
  <defs>
    <style>
      .cls-1, .cls-2 {
        stroke-width: 0px;
      }

      .cls-2 {
        fill: none;
      }

      .cls-3 {
        clip-path: url(#clippath);
      }
    </style>
    <clipPath id="clippath">
      <rect class="cls-2" width="128" height="128"/>
    </clipPath>
  </defs>
  <g id="_圖層_1-2" data-name="圖層 1">
    <g class="cls-3">
      <path class="cls-1" d="m64.02,40h-23.99v-15.99c-.02-3.23-1.97-6.13-4.96-7.36-2.98-1.25-6.42-.59-8.72,1.68L2.37,42.32c-3.14,3.11-3.16,8.17-.05,11.31.02.02.03.03.05.05l23.99,23.99c1.51,1.5,3.55,2.33,5.68,2.32,1.05.03,2.09-.19,3.04-.64,2.99-1.23,4.94-4.13,4.96-7.36v-15.99h23.99c26.5,0,47.98,21.48,47.98,47.98,0,4.42,3.58,8,8,8s8-3.58,8-8c0-35.33-28.64-63.98-63.98-63.98Z"/>
    </g>
  </g>
</svg>