<?xml version="1.0" encoding="UTF-8"?>
<svg id="_圖層_2" data-name="圖層 2" xmlns="http://www.w3.org/2000/svg" xmlns:xlink="http://www.w3.org/1999/xlink" viewBox="0 0 128 128">
  <defs>
    <style>
      .cls-1, .cls-2 {
        stroke-width: 0px;
      }

      .cls-2 {
        fill: none;
      }

      .cls-3 {
        clip-path: url(#clippath);
      }
    </style>
    <clipPath id="clippath">
      <rect class="cls-2" width="128" height="128"/>
    </clipPath>
  </defs>
  <g id="Layer_1" data-name="Layer 1">
    <g class="cls-3">
      <g>
        <path class="cls-1" d="m123.53,26.79c2.47,0,4.46-2,4.46-4.46V4.47C127.99,2.01,126,.01,123.53.01h-17.85c-2.47,0-4.46,2-4.46,4.46v4.45H26.78v-4.46c0-2.47-2-4.46-4.46-4.46H4.47C2,0,0,2,0,4.46v17.85c0,2.47,2,4.46,4.46,4.46h4.9v74.44h-4.9C2,101.21,0,103.21,0,105.68v17.85c0,2.47,2,4.46,4.46,4.46h17.85c2.47,0,4.46-2,4.46-4.46v-4.44h74.43v4.45c0,2.47,2,4.46,4.46,4.46h17.85c2.47,0,4.46-2,4.46-4.46v-17.85c0-2.47-2-4.46-4.46-4.46h-4.89V26.79h4.89Zm-4.46-17.85v8.92h-8.93v-4.4s.01-.04.01-.06-.01-.04-.01-.06v-4.4h8.93Zm-110.14-.01h8.93v4.42s-.01.04-.01.06.01.04.01.06v4.39h-8.93v-8.92Zm0,110.14v-8.92h8.93v4.42s-.01.04-.01.06.01.04.01.06v4.39h-8.93Zm110.14.01h-8.93v-4.4s.01-.04.01-.06-.01-.04-.01-.06v-4.4h8.93v8.92Zm-8.5-17.85h-4.89c-2.47,0-4.46,2-4.46,4.46v4.45H26.78v-4.46c0-2.47-2-4.46-4.46-4.46h-4.89V26.77h4.89c2.47,0,4.46-2,4.46-4.46v-4.44h74.43v4.45c0,2.47,2,4.46,4.46,4.46h4.89v74.44Z"/>
        <path class="cls-1" d="m72.26,65.96l11-3.66c1.76-.58,2.97-2.2,3.05-4.05.08-1.85-1-3.56-2.7-4.29l-41.68-17.86c-1.67-.72-3.63-.35-4.92.95-1.29,1.29-1.67,3.24-.95,4.92l17.86,41.68c.71,1.65,2.32,2.71,4.1,2.71.06,0,.12,0,.18,0,1.85-.08,3.47-1.29,4.05-3.05l3.68-11.01,12.75,12.76c.87.87,2.01,1.31,3.16,1.31s2.28-.44,3.16-1.31c.87-.87,1.31-2.01,1.31-3.16s-.44-2.28-1.31-3.16l-12.75-12.76Zm-14.75,3.37l-8.84-20.63,20.62,8.84-6.7,2.23s-.08.06-.13.08c-.5.18-.95.48-1.37.84-.13.12-.25.22-.37.35-.39.43-.69.91-.89,1.43-.02.04-.06.07-.07.12l-2.25,6.74Z"/>
      </g>
    </g>
  </g>
</svg>