<?xml version="1.0" encoding="UTF-8"?>
<svg id="_圖層_2" data-name="圖層 2" xmlns="http://www.w3.org/2000/svg" xmlns:xlink="http://www.w3.org/1999/xlink" viewBox="0 0 128 128">
  <defs>
    <style>
      .cls-1, .cls-2 {
        stroke-width: 0px;
      }

      .cls-2 {
        fill: none;
      }

      .cls-3 {
        clip-path: url(#clippath);
      }
    </style>
    <clipPath id="clippath">
      <rect class="cls-2" width="128" height="128"/>
    </clipPath>
  </defs>
  <g id="_圖層_1-2" data-name="圖層 1">
    <g class="cls-3">
      <path class="cls-1" d="m127.91,48.02C127.91,21.54,106.37,0,79.89,0c-24.64,0-45,18.66-47.71,42.59H5.57c-3.03,0-5.49,2.46-5.49,5.49v74.44c0,3.03,2.46,5.49,5.49,5.49h74.44c3.03,0,5.49-2.46,5.49-5.49v-26.81c23.85-2.79,42.42-23.1,42.42-47.68Zm-53.39,36.66c-16.08-2.34-28.85-15.05-31.27-31.11h31.27v31.11ZM11.06,117.03v-63.47h21.14c2.55,22.12,20.19,39.7,42.33,42.17v21.29H11.06Zm74.44-32.38v-36.57c0-3.03-2.46-5.49-5.49-5.49h-36.77c2.64-17.86,18.06-31.62,36.65-31.62,20.43,0,37.05,16.62,37.05,37.05,0,18.52-13.67,33.92-31.44,36.63Z"/>
    </g>
  </g>
</svg>